PathFileType	4	(X/Y/Z)	/Users/itak/Documents/Research/Walk-IL/dataset/trc/00117_00007.trc
DataRate	CameraRate	NumFrames	NumMarkers	Units	OrigDataRate	OrigDataStartFrame	OrigNumFrames
100.000000	100.000000	4	53	mm	100.000000	0	526
Frame#	Time	RPSI			LPSI			L3			STRN			T10			C7			CLAV			RBAK			LBAK			LSHO			LUPA			LAEL			LAOL			LWTS			LWPS			LFRA			LIFD			LHPS			LHTS			RSHO			RUPA			RAEL			RAOL			RWTS			RWPS			RFRA			RIFD			RHTS			RHPS			RBHD			LFHD			RFHD			LBHD			LHIP			RHIP			RASI			LASI			LKNE			LTHI			LANK			LTIP			LTOE			LMT1			LMT5			LHEE			RKNE			RTHI			RANK			RTIP			RTOE			RMT1			RMT5			RHEE			
		X1	Y1	Z1	X2	Y2	Z2	X3	Y3	Z3	X4	Y4	Z4	X5	Y5	Z5	X6	Y6	Z6	X7	Y7	Z7	X8	Y8	Z8	X9	Y9	Z9	X10	Y10	Z10	X11	Y11	Z11	X12	Y12	Z12	X13	Y13	Z13	X14	Y14	Z14	X15	Y15	Z15	X16	Y16	Z16	X17	Y17	Z17	X18	Y18	Z18	X19	Y19	Z19	X20	Y20	Z20	X21	Y21	Z21	X22	Y22	Z22	X23	Y23	Z23	X24	Y24	Z24	X25	Y25	Z25	X26	Y26	Z26	X27	Y27	Z27	X28	Y28	Z28	X29	Y29	Z29	X30	Y30	Z30	X31	Y31	Z31	X32	Y32	Z32	X33	Y33	Z33	X34	Y34	Z34	X35	Y35	Z35	X36	Y36	Z36	X37	Y37	Z37	X38	Y38	Z38	X39	Y39	Z39	X40	Y40	Z40	X41	Y41	Z41	X42	Y42	Z42	X43	Y43	Z43	X44	Y44	Z44	X45	Y45	Z45	X46	Y46	Z46	X47	Y47	Z47	X48	Y48	Z48	X49	Y49	Z49	X50	Y50	Z50	X51	Y51	Z51	X52	Y52	Z52	X53	Y53	Z53	

1	0	459.3659973144531	1126.234130859375	-258.1768493652344	467.1719665527344	1126.633666992188	-392.2462768554688	456.9716491699219	1157.138671875	-327.4999694824219	665.3270263671875	1364.29248046875	-319.3017578125	412.67236328125	1304.151611328125	-332.5014038085938	437.2740173339844	1597.916015625	-347.5821228027344	623.7151489257812	1497.4248046875	-325.8056335449219	386.6323547363281	1411.860473632812	-263.2036743164062	436.4468383789062	1576.286376953125	-448.9267883300781	528.4464721679688	1565.738159179688	-511.6668090820312	513.9032592773438	1431.733154296875	-580.549072265625	532.623291015625	1212.747680664062	-596.1918334960938	467.4566040039062	1198.99951171875	-538.1858520507812	648.306396484375	963.74365234375	-551.2460327148438	566.7005004882812	931.3538818359375	-573.2440185546875	554.244873046875	1097.611328125	-597.85400390625	671.4263916015625	771.5765991210938	-521.37353515625	600.1453247070312	857.8392333984375	-572.8389892578125	668.4308471679688	874.935791015625	-560.2213134765625	480.5885314941406	1581.637451171875	-162.1303253173828	461.7971496582031	1507.575561523438	-99.55226135253906	458.583251953125	1213.238037109375	-79.02259063720703	460.176025390625	1212.223022460938	-175.3596496582031	608.3379516601562	974.2274169921875	-84.04872894287109	533.4775390625	955.6365356445312	-56.76387405395508	483.0675354003906	1140.586181640625	-62.20566177368164	637.91796875	780.1795654296875	-100.3671646118164	639.8302612304688	866.4010620117188	-77.20443725585938	572.0746459960938	857.1334838867188	-50.73540496826172	466.2774353027344	1769.467529296875	-262.5119323730469	624.9379272460938	1846.817504882812	-393.9961547851562	622.7444458007812	1852.299682617188	-264.3968811035156	458.2379455566406	1767.427490234375	-397.6053161621094	563.2529296875	1038.070434570312	-494.5659484863281	582.002685546875	1031.96728515625	-134.4179840087891	663.62841796875	1106.2822265625	-183.7876892089844	669.8372192382812	1106.90625	-451.1064758300781	583.1774291992188	537.6795654296875	-470.4437255859375	563.5580444335938	682.744384765625	-495.6076049804688	457.759033203125	35.94586181640625	-468.6201477050781	474.7860717773438	292.49462890625	-498.9189147949219	691.0770263671875	35.88418579101562	-414.33349609375	609.4970703125	41.27095031738281	-380.1397705078125	582.7607421875	33.69727325439453	-494.6265258789062	389.7771606445312	37.81161880493164	-406.1538696289062	565.6115112304688	539.2996215820312	-170.7570037841797	596.5218505859375	820.7921752929688	-141.9776763916016	463.9708862304688	27.84109306335449	-196.7195129394531	538.1139526367188	406.8875427246094	-160.3270721435547	695.3113403320312	43.85417175292969	-253.3558044433594	632.889404296875	33.54300689697266	-294.7335205078125	598.3343505859375	38.23135757446289	-178.2603454589844	405.2122802734375	31.90504264831543	-245.0124664306641	
2	0.01	459.3832092285156	1126.23876953125	-258.1751403808594	467.1941833496094	1126.661254882812	-392.2440490722656	456.9354858398438	1157.14794921875	-327.52001953125	665.375732421875	1364.278930664062	-319.2923583984375	412.6965942382812	1304.198974609375	-332.4937438964844	437.3724365234375	1597.9482421875	-347.5779418945312	623.86669921875	1497.446533203125	-325.8034362792969	386.7567138671875	1411.900390625	-263.1809387207031	436.5676574707031	1576.3212890625	-448.9202270507812	528.5966796875	1565.760131835938	-511.6589965820312	514.0640869140625	1431.7509765625	-580.5280151367188	532.7828369140625	1212.741577148438	-596.1339111328125	467.5990295410156	1199.000122070312	-538.1581420898438	648.4097900390625	963.7210693359375	-551.0980224609375	566.8319091796875	931.3519287109375	-573.133544921875	554.40869140625	1097.609497070312	-597.7988891601562	671.4542236328125	771.535400390625	-521.1995239257812	600.2110595703125	857.8198852539062	-572.6781005859375	668.5111694335938	874.9216918945312	-560.0463256835938	480.7061767578125	1581.65673828125	-162.1305847167969	461.8923950195312	1507.599853515625	-99.54390716552734	458.6137084960938	1213.247314453125	-79.02476501464844	460.2122497558594	1212.238159179688	-175.3565673828125	608.3475952148438	974.2413940429688	-84.05950164794922	533.49462890625	955.6441040039062	-56.76499176025391	483.0886840820312	1140.597900390625	-62.20479583740234	637.9224243164062	780.18896484375	-100.3772354125977	639.8342895507812	866.4061889648438	-77.213134765625	572.0870361328125	857.1441650390625	-50.75198364257812	466.4570617675781	1769.527587890625	-262.4923400878906	625.0952758789062	1846.776000976562	-394.1012268066406	622.9378662109375	1852.286987304688	-264.4632873535156	458.3270568847656	1767.444213867188	-397.582763671875	563.1458129882812	1038.071533203125	-494.5921630859375	582.0030517578125	1031.963623046875	-134.4168701171875	663.6477661132812	1106.270263671875	-183.7832794189453	669.846923828125	1106.911010742188	-451.1009521484375	583.1636962890625	537.67529296875	-470.4510192871094	563.5294189453125	682.7534790039062	-495.6155700683594	457.7569580078125	35.94226455688477	-468.6200256347656	474.7775268554688	292.4895324707031	-498.9185485839844	691.0738525390625	35.88603591918945	-414.3421630859375	609.4910888671875	41.26504898071289	-380.1374206542969	582.7593994140625	33.69751358032227	-494.624755859375	389.7786254882812	37.81867218017578	-406.1622009277344	565.569091796875	539.3018798828125	-170.7565765380859	596.5170288085938	820.7887573242188	-141.9866638183594	463.9699096679688	27.83706855773926	-196.7194671630859	538.0730590820312	406.8907470703125	-160.3225250244141	695.3123779296875	43.85340118408203	-253.3592376708984	632.886474609375	33.54265594482422	-294.7330932617188	598.3375244140625	38.22679138183594	-178.2626647949219	405.2106323242188	31.91000747680664	-245.0151672363281	
3	0.02	459.4056701660156	1126.246215820312	-258.1724853515625	467.2202453613281	1126.696411132812	-392.2408752441406	456.9105834960938	1157.163452148438	-327.5410766601562	665.4409790039062	1364.262939453125	-319.2840881347656	412.7369079589844	1304.257202148438	-332.4864807128906	437.5094604492188	1597.987182617188	-347.5689392089844	624.052978515625	1497.470092773438	-325.8038940429688	386.9076232910156	1411.953735351562	-263.1560974121094	436.7310180664062	1576.370483398438	-448.9123840332031	528.7737426757812	1565.7841796875	-511.6524963378906	514.2665405273438	1431.774169921875	-580.5049438476562	532.98974609375	1212.739013671875	-596.05859375	467.7877807617188	1199.005737304688	-538.1240844726562	648.5313720703125	963.693603515625	-550.912353515625	566.9802856445312	931.3505859375	-573.0037841796875	554.6121826171875	1097.609375	-597.7267456054688	671.4781494140625	771.4876098632812	-520.9883422851562	600.2835693359375	857.7967529296875	-572.491943359375	668.591796875	874.8988647460938	-559.8362426757812	480.8599853515625	1581.680786132812	-162.1307525634766	462.0188598632812	1507.629516601562	-99.53641510009766	458.6575927734375	1213.259887695312	-79.02662658691406	460.2593383789062	1212.256225585938	-175.3529052734375	608.3681640625	974.2579345703125	-84.07546997070312	533.5267944335938	955.65478515625	-56.76572036743164	483.1229858398438	1140.612915039062	-62.20449829101562	637.9339599609375	780.2005004882812	-100.3912887573242	639.8497924804688	866.4120483398438	-77.22578430175781	572.108642578125	857.1572265625	-50.77246475219727	466.684814453125	1769.594848632812	-262.4698181152344	625.29296875	1846.727416992188	-394.2294921875	623.1845092773438	1852.273681640625	-264.55419921875	458.4502868652344	1767.4609375	-397.5530395507812	563.040771484375	1038.070434570312	-494.6234130859375	582.0055541992188	1031.95947265625	-134.4156951904297	663.6708984375	1106.254638671875	-183.7788543701172	669.8623046875	1106.916259765625	-451.0947570800781	583.1469116210938	537.6703491210938	-470.459716796875	563.4984130859375	682.7626953125	-495.6251831054688	457.7542114257812	35.93719100952148	-468.6201171875	474.7666625976562	292.4842834472656	-498.9183959960938	691.0711669921875	35.88849639892578	-414.3503723144531	609.4837036132812	41.25820541381836	-380.1344604492188	582.7581787109375	33.69762802124023	-494.6228637695312	389.7799377441406	37.82306671142578	-406.16943359375	565.5157470703125	539.3042602539062	-170.7530059814453	596.5157470703125	820.78955078125	-142.0023040771484	463.9690246582031	27.8342113494873	-196.7184448242188	538.019775390625	406.8951110839844	-160.3147735595703	695.3126831054688	43.85378265380859	-253.3626861572266	632.8836669921875	33.54276657104492	-294.7325439453125	598.3402709960938	38.22251510620117	-178.2649841308594	405.2100524902344	31.91318511962891	-245.0173645019531	
4	0.03	459.4332885742188	1126.256103515625	-258.1689147949219	467.2504577636719	1126.737426757812	-392.2367553710938	456.9078063964844	1157.186401367188	-327.5606689453125	665.5230712890625	1364.245361328125	-319.2788391113281	412.7954711914062	1304.32373046875	-332.4811706542969	437.6861267089844	1598.031127929688	-347.5537719726562	624.2642211914062	1497.49267578125	-325.8088684082031	387.07568359375	1412.02001953125	-263.1325378417969	436.9364929199219	1576.434936523438	-448.9037780761719	528.9661254882812	1565.807983398438	-511.6487731933594	514.5011596679688	1431.8017578125	-580.4826049804688	533.2354125976562	1212.741333007812	-595.9686279296875	468.015869140625	1199.019897460938	-538.083984375	648.6605224609375	963.6616821289062	-550.6986694335938	567.1309814453125	931.350341796875	-572.8638305664062	554.8436279296875	1097.612060546875	-597.6395263671875	671.4891967773438	771.4349365234375	-520.75146484375	600.3551025390625	857.7716064453125	-572.2952270507812	668.6597290039062	874.865478515625	-559.604736328125	481.046630859375	1581.70849609375	-162.1310272216797	462.1751403808594	1507.662963867188	-99.53121185302734	458.7162780761719	1213.275512695312	-79.02819061279297	460.31396484375	1212.277099609375	-175.3499603271484	608.4027099609375	974.2758178710938	-84.0970458984375	533.5768432617188	955.66845703125	-56.76641845703125	483.1732788085938	1140.630615234375	-62.20520782470703	637.9549560546875	780.21337890625	-100.4088745117188	639.8809204101562	866.4182739257812	-77.24273681640625	572.1416625976562	857.1721801757812	-50.7955436706543	466.9528198242188	1769.662963867188	-262.4461364746094	625.5228271484375	1846.676391601562	-394.3734130859375	623.4765625	1852.261840820312	-264.66748046875	458.6077270507812	1767.475708007812	-397.5166625976562	562.9478759765625	1038.066650390625	-494.6572570800781	582.0111694335938	1031.955078125	-134.414794921875	663.6958618164062	1106.235107421875	-183.7752075195312	669.8837280273438	1106.921264648438	-451.0886535644531	583.1282958984375	537.6651000976562	-470.4688720703125	563.4688110351562	682.7705078125	-495.635986328125	457.7509765625	35.93100357055664	-468.620361328125	474.7534484863281	292.4794006347656	-498.918212890625	691.0692749023438	35.89177322387695	-414.3571166992188	609.4756469726562	41.25165176391602	-380.1310424804688	582.7572021484375	33.69753646850586	-494.6210021972656	389.7805480957031	37.82428359985352	-406.1742858886719	565.45361328125	539.306396484375	-170.7454833984375	596.520751953125	820.79541015625	-142.0252990722656	463.9680480957031	27.8326416015625	-196.7162933349609	537.9556274414062	406.9001159667969	-160.3032531738281	695.311767578125	43.85569000244141	-253.3656921386719	632.88134765625	33.54362869262695	-294.7319030761719	598.3421630859375	38.21894454956055	-178.2669219970703	405.2109375	31.91371154785156	-245.0185546875	
